<?xml version="1.0" encoding="UTF-8" standalone="no"?> <svg id="Layer_1" data-name="Layer 1" xmlns="http://www.w3.org/2000/svg" viewBox="0 0 128 128"><defs><style>.cls-1{fill:#f7f7f7;}</style></defs><title>a</title><path class="cls-1" d="M125.33705,27.01578a1.05621,1.05621,0,0,0-1.76179-.462L106.37554,43.75354a5.98262,5.98262,0,0,1-8.46069,0L84.20513,30.04382a5.98262,5.98262,0,0,1,0-8.46069L101.40485,4.3834a1.05621,1.05621,0,0,0-.462-1.76179A35.68012,35.68012,0,0,0,57.66309,49.448L5.6855,101.42558a14.95454,14.95454,0,0,0-.00221,21.21183,14.75874,14.75874,0,0,0,20.66488-.1795L78.51055,70.29553a35.68013,35.68013,0,0,0,46.82651-43.27975Z"/></svg>